<svg xmlns="http://www.w3.org/2000/svg" xmlns:xlink="http://www.w3.org/1999/xlink" width="500" zoomAndPan="magnify" viewBox="0 0 375 374.999991" height="500" preserveAspectRatio="xMidYMid meet" version="1.0"><defs><g/><clipPath id="f58dce0e17"><path d="M 151.421875 121.539062 L 223.421875 121.539062 L 223.421875 206.289062 L 151.421875 206.289062 Z M 151.421875 121.539062 " clip-rule="nonzero"/></clipPath></defs><path fill="#990000" d="M 217.859375 183.6875 C 199.652344 183.6875 175.175781 183.6875 156.96875 183.6875 L 156.96875 138.488281 L 162.503906 138.488281 L 162.503906 132.835938 C 176.621094 132.835938 198.207031 132.835938 212.324219 132.835938 L 212.324219 138.488281 L 217.859375 138.488281 L 217.859375 183.6875 " fill-opacity="1" fill-rule="evenodd"/><path fill="#c10505" d="M 156.96875 194.988281 L 156.96875 183.6875 L 162.503906 183.6875 L 162.503906 178.039062 L 168.039062 178.039062 L 168.039062 172.386719 L 184.644531 172.386719 L 184.644531 178.039062 L 190.183594 178.039062 L 190.183594 172.386719 L 206.789062 172.386719 L 206.789062 178.039062 L 212.324219 178.039062 L 212.324219 183.6875 L 217.859375 183.6875 L 217.859375 194.988281 C 194.476562 194.988281 180.351562 194.988281 156.96875 194.988281 " fill-opacity="1" fill-rule="evenodd"/><path fill="#ffffff" d="M 201.253906 138.488281 L 201.253906 132.835938 L 206.789062 132.835938 L 206.789062 144.136719 L 201.253906 144.136719 Z M 195.71875 138.488281 L 190.183594 138.488281 L 190.183594 132.835938 L 195.71875 132.835938 Z M 179.109375 138.488281 L 184.644531 138.488281 L 184.644531 132.835938 L 179.109375 132.835938 Z M 156.96875 138.488281 L 162.503906 138.488281 L 162.503906 132.835938 L 156.96875 132.835938 Z M 168.039062 144.136719 L 173.574219 144.136719 L 173.574219 132.835938 L 168.039062 132.835938 Z M 173.574219 194.988281 L 179.109375 194.988281 L 179.109375 183.6875 L 173.574219 183.6875 Z M 184.644531 194.988281 L 190.183594 194.988281 L 190.183594 189.339844 L 184.644531 189.339844 Z M 212.324219 194.988281 L 206.789062 194.988281 L 206.789062 189.339844 L 212.324219 189.339844 Z M 195.71875 189.339844 L 195.71875 183.6875 L 201.253906 183.6875 L 201.253906 194.988281 L 195.71875 194.988281 Z M 162.503906 194.988281 L 168.039062 194.988281 L 168.039062 189.339844 L 162.503906 189.339844 Z M 217.859375 138.488281 L 212.324219 138.488281 L 212.324219 132.835938 L 217.859375 132.835938 L 217.859375 138.488281 " fill-opacity="1" fill-rule="evenodd"/><g clip-path="url(#f58dce0e17)"><path fill="#ff0000" d="M 156.96875 132.835938 L 156.96875 194.988281 L 217.859375 194.988281 L 217.859375 132.835938 Z M 190.183594 121.539062 L 212.324219 121.539062 L 212.324219 127.1875 L 217.859375 127.1875 L 217.859375 132.835938 L 223.398438 132.835938 L 223.398438 194.988281 L 217.859375 194.988281 L 217.859375 200.640625 L 212.324219 200.640625 L 212.324219 206.289062 L 162.503906 206.289062 L 162.503906 200.640625 L 156.96875 200.640625 L 156.96875 194.988281 L 151.429688 194.988281 L 151.429688 132.835938 L 156.96875 132.835938 L 156.96875 127.1875 L 162.503906 127.1875 L 162.503906 121.539062 L 190.183594 121.539062 " fill-opacity="1" fill-rule="evenodd"/></g><g fill="#25366c" fill-opacity="1"><g transform="translate(149.277051, 236.913558)"><g><path d="M 17.859375 -8.875 C 17.859375 -6.9375 17.492188 -5.289062 16.765625 -3.9375 C 16.035156 -2.582031 15.039062 -1.546875 13.78125 -0.828125 C 12.53125 -0.109375 11.117188 0.25 9.546875 0.25 C 7.972656 0.25 6.554688 -0.109375 5.296875 -0.828125 C 4.046875 -1.546875 3.054688 -2.585938 2.328125 -3.953125 C 1.597656 -5.316406 1.234375 -6.957031 1.234375 -8.875 C 1.234375 -10.8125 1.597656 -12.457031 2.328125 -13.8125 C 3.054688 -15.175781 4.046875 -16.210938 5.296875 -16.921875 C 6.554688 -17.640625 7.972656 -18 9.546875 -18 C 11.117188 -18 12.53125 -17.640625 13.78125 -16.921875 C 15.039062 -16.210938 16.035156 -15.175781 16.765625 -13.8125 C 17.492188 -12.457031 17.859375 -10.8125 17.859375 -8.875 Z M 14.0625 -8.875 C 14.0625 -10.757812 13.648438 -12.195312 12.828125 -13.1875 C 12.003906 -14.1875 10.910156 -14.6875 9.546875 -14.6875 C 8.179688 -14.6875 7.085938 -14.1875 6.265625 -13.1875 C 5.441406 -12.195312 5.03125 -10.757812 5.03125 -8.875 C 5.03125 -7 5.441406 -5.5625 6.265625 -4.5625 C 7.085938 -3.570312 8.179688 -3.078125 9.546875 -3.078125 C 10.910156 -3.078125 12.003906 -3.570312 12.828125 -4.5625 C 13.648438 -5.5625 14.0625 -7 14.0625 -8.875 Z M 14.0625 -8.875 "/></g></g></g><g fill="#25366c" fill-opacity="1"><g transform="translate(168.37384, 236.913558)"><g><path d="M 3.640625 0.21875 C 3.066406 0.21875 2.570312 0.0195312 2.15625 -0.375 C 1.75 -0.78125 1.546875 -1.273438 1.546875 -1.859375 C 1.546875 -2.421875 1.75 -2.90625 2.15625 -3.3125 C 2.570312 -3.71875 3.066406 -3.921875 3.640625 -3.921875 C 4.191406 -3.921875 4.671875 -3.71875 5.078125 -3.3125 C 5.492188 -2.90625 5.707031 -2.421875 5.71875 -1.859375 C 5.707031 -1.273438 5.492188 -0.78125 5.078125 -0.375 C 4.671875 0.0195312 4.191406 0.21875 3.640625 0.21875 Z M 3.640625 0.21875 "/></g></g></g><g fill="#25366c" fill-opacity="1"><g transform="translate(175.641376, 236.913558)"><g><path d="M 7.84375 0 L 1.546875 0 L 1.546875 -17.765625 L 7.890625 -17.765625 C 9.679688 -17.765625 11.222656 -17.410156 12.515625 -16.703125 C 13.804688 -15.992188 14.796875 -14.976562 15.484375 -13.65625 C 16.179688 -12.332031 16.53125 -10.742188 16.53125 -8.890625 C 16.53125 -7.046875 16.179688 -5.457031 15.484375 -4.125 C 14.785156 -2.800781 13.785156 -1.78125 12.484375 -1.0625 C 11.191406 -0.351562 9.644531 0 7.84375 0 Z M 5.296875 -3.21875 L 7.6875 -3.21875 C 9.351562 -3.21875 10.617188 -3.664062 11.484375 -4.5625 C 12.347656 -5.46875 12.78125 -6.910156 12.78125 -8.890625 C 12.78125 -10.867188 12.347656 -12.304688 11.484375 -13.203125 C 10.617188 -14.097656 9.351562 -14.546875 7.6875 -14.546875 L 5.296875 -14.546875 Z M 5.296875 -3.21875 "/></g></g></g><g fill="#25366c" fill-opacity="1"><g transform="translate(193.402605, 236.913558)"><g><path d="M 3.640625 0.21875 C 3.066406 0.21875 2.570312 0.0195312 2.15625 -0.375 C 1.75 -0.78125 1.546875 -1.273438 1.546875 -1.859375 C 1.546875 -2.421875 1.75 -2.90625 2.15625 -3.3125 C 2.570312 -3.71875 3.066406 -3.921875 3.640625 -3.921875 C 4.191406 -3.921875 4.671875 -3.71875 5.078125 -3.3125 C 5.492188 -2.90625 5.707031 -2.421875 5.71875 -1.859375 C 5.707031 -1.273438 5.492188 -0.78125 5.078125 -0.375 C 4.671875 0.0195312 4.191406 0.21875 3.640625 0.21875 Z M 3.640625 0.21875 "/></g></g></g><g fill="#25366c" fill-opacity="1"><g transform="translate(200.670141, 236.913558)"><g><path d="M 7.84375 0 L 1.546875 0 L 1.546875 -17.765625 L 7.890625 -17.765625 C 9.679688 -17.765625 11.222656 -17.410156 12.515625 -16.703125 C 13.804688 -15.992188 14.796875 -14.976562 15.484375 -13.65625 C 16.179688 -12.332031 16.53125 -10.742188 16.53125 -8.890625 C 16.53125 -7.046875 16.179688 -5.457031 15.484375 -4.125 C 14.785156 -2.800781 13.785156 -1.78125 12.484375 -1.0625 C 11.191406 -0.351562 9.644531 0 7.84375 0 Z M 5.296875 -3.21875 L 7.6875 -3.21875 C 9.351562 -3.21875 10.617188 -3.664062 11.484375 -4.5625 C 12.347656 -5.46875 12.78125 -6.910156 12.78125 -8.890625 C 12.78125 -10.867188 12.347656 -12.304688 11.484375 -13.203125 C 10.617188 -14.097656 9.351562 -14.546875 7.6875 -14.546875 L 5.296875 -14.546875 Z M 5.296875 -3.21875 "/></g></g></g><g fill="#25366c" fill-opacity="1"><g transform="translate(218.43137, 236.913558)"><g><path d="M 3.640625 0.21875 C 3.066406 0.21875 2.570312 0.0195312 2.15625 -0.375 C 1.75 -0.78125 1.546875 -1.273438 1.546875 -1.859375 C 1.546875 -2.421875 1.75 -2.90625 2.15625 -3.3125 C 2.570312 -3.71875 3.066406 -3.921875 3.640625 -3.921875 C 4.191406 -3.921875 4.671875 -3.71875 5.078125 -3.3125 C 5.492188 -2.90625 5.707031 -2.421875 5.71875 -1.859375 C 5.707031 -1.273438 5.492188 -0.78125 5.078125 -0.375 C 4.671875 0.0195312 4.191406 0.21875 3.640625 0.21875 Z M 3.640625 0.21875 "/></g></g></g><g fill="#ed1c24" fill-opacity="1"><g transform="translate(97.476627, 251.456935)"><g><path d="M 7.40625 -3.6875 C 7.40625 -2.882812 7.253906 -2.195312 6.953125 -1.625 C 6.648438 -1.0625 6.238281 -0.632812 5.71875 -0.34375 C 5.195312 -0.0507812 4.609375 0.09375 3.953125 0.09375 C 3.304688 0.09375 2.722656 -0.0507812 2.203125 -0.34375 C 1.679688 -0.644531 1.269531 -1.078125 0.96875 -1.640625 C 0.664062 -2.203125 0.515625 -2.882812 0.515625 -3.6875 C 0.515625 -4.488281 0.664062 -5.171875 0.96875 -5.734375 C 1.269531 -6.296875 1.679688 -6.722656 2.203125 -7.015625 C 2.722656 -7.316406 3.304688 -7.46875 3.953125 -7.46875 C 4.609375 -7.46875 5.195312 -7.316406 5.71875 -7.015625 C 6.238281 -6.722656 6.648438 -6.296875 6.953125 -5.734375 C 7.253906 -5.171875 7.40625 -4.488281 7.40625 -3.6875 Z M 5.828125 -3.6875 C 5.828125 -4.46875 5.65625 -5.0625 5.3125 -5.46875 C 4.976562 -5.882812 4.523438 -6.09375 3.953125 -6.09375 C 3.390625 -6.09375 2.9375 -5.882812 2.59375 -5.46875 C 2.257812 -5.0625 2.09375 -4.46875 2.09375 -3.6875 C 2.09375 -2.90625 2.257812 -2.304688 2.59375 -1.890625 C 2.9375 -1.484375 3.390625 -1.28125 3.953125 -1.28125 C 4.523438 -1.28125 4.976562 -1.484375 5.3125 -1.890625 C 5.65625 -2.304688 5.828125 -2.90625 5.828125 -3.6875 Z M 5.828125 -3.6875 "/></g></g></g><g fill="#ed1c24" fill-opacity="1"><g transform="translate(107.785247, 251.456935)"><g><path d="M 0.640625 0 L 0.640625 -7.359375 L 3.546875 -7.359375 C 4.378906 -7.359375 5.023438 -7.140625 5.484375 -6.703125 C 5.953125 -6.273438 6.1875 -5.691406 6.1875 -4.953125 C 6.1875 -4.453125 6.070312 -4.019531 5.84375 -3.65625 C 5.625 -3.300781 5.300781 -3.035156 4.875 -2.859375 L 6.453125 0 L 4.734375 0 L 3.328125 -2.609375 L 2.203125 -2.609375 L 2.203125 0 Z M 2.203125 -3.859375 L 3.25 -3.859375 C 4.132812 -3.859375 4.578125 -4.222656 4.578125 -4.953125 C 4.578125 -5.710938 4.132812 -6.09375 3.25 -6.09375 L 2.203125 -6.09375 Z M 2.203125 -3.859375 "/></g></g></g><g fill="#ed1c24" fill-opacity="1"><g transform="translate(116.821032, 251.456935)"><g><path d="M 1.90625 0 L 0.234375 0 L 2.78125 -7.359375 L 4.796875 -7.359375 L 7.328125 0 L 5.65625 0 L 5.109375 -1.671875 L 2.453125 -1.671875 Z M 2.84375 -2.890625 L 4.71875 -2.890625 L 3.8125 -5.6875 L 3.75 -5.6875 Z M 2.84375 -2.890625 "/></g></g></g><g fill="#ed1c24" fill-opacity="1"><g transform="translate(126.784475, 251.456935)"><g><path d="M 0.640625 0 L 0.640625 -7.359375 L 2.203125 -7.359375 L 2.203125 -1.28125 L 5.359375 -1.28125 L 5.359375 0 Z M 0.640625 0 "/></g></g></g><g fill="#ed1c24" fill-opacity="1"><g transform="translate(134.921361, 251.456935)"><g/></g></g><g fill="#ed1c24" fill-opacity="1"><g transform="translate(139.660405, 251.456935)"><g><path d="M 3.25 0 L 0.640625 0 L 0.640625 -7.359375 L 3.265625 -7.359375 C 4.015625 -7.359375 4.65625 -7.210938 5.1875 -6.921875 C 5.71875 -6.628906 6.128906 -6.207031 6.421875 -5.65625 C 6.710938 -5.113281 6.859375 -4.457031 6.859375 -3.6875 C 6.859375 -2.914062 6.710938 -2.253906 6.421875 -1.703125 C 6.128906 -1.160156 5.710938 -0.738281 5.171875 -0.4375 C 4.640625 -0.144531 4 0 3.25 0 Z M 2.203125 -1.328125 L 3.1875 -1.328125 C 3.875 -1.328125 4.394531 -1.515625 4.75 -1.890625 C 5.113281 -2.265625 5.296875 -2.863281 5.296875 -3.6875 C 5.296875 -4.507812 5.113281 -5.101562 4.75 -5.46875 C 4.394531 -5.84375 3.875 -6.03125 3.1875 -6.03125 L 2.203125 -6.03125 Z M 2.203125 -1.328125 "/></g></g></g><g fill="#ed1c24" fill-opacity="1"><g transform="translate(149.415302, 251.456935)"><g><path d="M 0.640625 0 L 0.640625 -7.359375 L 5.609375 -7.359375 L 5.609375 -6.078125 L 2.203125 -6.078125 L 2.203125 -4.328125 L 5.34375 -4.328125 L 5.34375 -3.046875 L 2.203125 -3.046875 L 2.203125 -1.28125 L 5.609375 -1.28125 L 5.609375 0 Z M 0.640625 0 "/></g></g></g><g fill="#ed1c24" fill-opacity="1"><g transform="translate(158.008819, 251.456935)"><g><path d="M 0.359375 -6.078125 L 0.359375 -7.359375 L 6.40625 -7.359375 L 6.40625 -6.078125 L 4.15625 -6.078125 L 4.15625 0 L 2.609375 0 L 2.609375 -6.078125 Z M 0.359375 -6.078125 "/></g></g></g><g fill="#ed1c24" fill-opacity="1"><g transform="translate(167.16685, 251.456935)"><g><path d="M 0.640625 0 L 0.640625 -7.359375 L 5.609375 -7.359375 L 5.609375 -6.078125 L 2.203125 -6.078125 L 2.203125 -4.328125 L 5.34375 -4.328125 L 5.34375 -3.046875 L 2.203125 -3.046875 L 2.203125 -1.28125 L 5.609375 -1.28125 L 5.609375 0 Z M 0.640625 0 "/></g></g></g><g fill="#ed1c24" fill-opacity="1"><g transform="translate(175.760367, 251.456935)"><g><path d="M 7.140625 -4.78125 L 5.5625 -4.78125 C 5.5 -5.1875 5.320312 -5.503906 5.03125 -5.734375 C 4.75 -5.972656 4.398438 -6.09375 3.984375 -6.09375 C 3.410156 -6.09375 2.953125 -5.878906 2.609375 -5.453125 C 2.265625 -5.035156 2.09375 -4.445312 2.09375 -3.6875 C 2.09375 -2.894531 2.265625 -2.296875 2.609375 -1.890625 C 2.953125 -1.484375 3.40625 -1.28125 3.96875 -1.28125 C 4.382812 -1.28125 4.734375 -1.382812 5.015625 -1.59375 C 5.304688 -1.8125 5.488281 -2.117188 5.5625 -2.515625 L 7.140625 -2.515625 C 7.078125 -2.054688 6.910156 -1.628906 6.640625 -1.234375 C 6.378906 -0.835938 6.019531 -0.515625 5.5625 -0.265625 C 5.113281 -0.0234375 4.570312 0.09375 3.9375 0.09375 C 3.28125 0.09375 2.691406 -0.0507812 2.171875 -0.34375 C 1.660156 -0.644531 1.253906 -1.078125 0.953125 -1.640625 C 0.660156 -2.203125 0.515625 -2.882812 0.515625 -3.6875 C 0.515625 -4.488281 0.664062 -5.171875 0.96875 -5.734375 C 1.269531 -6.296875 1.675781 -6.722656 2.1875 -7.015625 C 2.707031 -7.316406 3.289062 -7.46875 3.9375 -7.46875 C 4.507812 -7.46875 5.019531 -7.359375 5.46875 -7.140625 C 5.925781 -6.929688 6.300781 -6.628906 6.59375 -6.234375 C 6.882812 -5.835938 7.066406 -5.351562 7.140625 -4.78125 Z M 7.140625 -4.78125 "/></g></g></g><g fill="#ed1c24" fill-opacity="1"><g transform="translate(185.766954, 251.456935)"><g><path d="M 0.359375 -6.078125 L 0.359375 -7.359375 L 6.40625 -7.359375 L 6.40625 -6.078125 L 4.15625 -6.078125 L 4.15625 0 L 2.609375 0 L 2.609375 -6.078125 Z M 0.359375 -6.078125 "/></g></g></g><g fill="#ed1c24" fill-opacity="1"><g transform="translate(194.924985, 251.456935)"><g><path d="M 2.203125 -7.359375 L 2.203125 0 L 0.640625 0 L 0.640625 -7.359375 Z M 2.203125 -7.359375 "/></g></g></g><g fill="#ed1c24" fill-opacity="1"><g transform="translate(200.156628, 251.456935)"><g><path d="M 7.40625 -3.6875 C 7.40625 -2.882812 7.253906 -2.195312 6.953125 -1.625 C 6.648438 -1.0625 6.238281 -0.632812 5.71875 -0.34375 C 5.195312 -0.0507812 4.609375 0.09375 3.953125 0.09375 C 3.304688 0.09375 2.722656 -0.0507812 2.203125 -0.34375 C 1.679688 -0.644531 1.269531 -1.078125 0.96875 -1.640625 C 0.664062 -2.203125 0.515625 -2.882812 0.515625 -3.6875 C 0.515625 -4.488281 0.664062 -5.171875 0.96875 -5.734375 C 1.269531 -6.296875 1.679688 -6.722656 2.203125 -7.015625 C 2.722656 -7.316406 3.304688 -7.46875 3.953125 -7.46875 C 4.609375 -7.46875 5.195312 -7.316406 5.71875 -7.015625 C 6.238281 -6.722656 6.648438 -6.296875 6.953125 -5.734375 C 7.253906 -5.171875 7.40625 -4.488281 7.40625 -3.6875 Z M 5.828125 -3.6875 C 5.828125 -4.46875 5.65625 -5.0625 5.3125 -5.46875 C 4.976562 -5.882812 4.523438 -6.09375 3.953125 -6.09375 C 3.390625 -6.09375 2.9375 -5.882812 2.59375 -5.46875 C 2.257812 -5.0625 2.09375 -4.46875 2.09375 -3.6875 C 2.09375 -2.90625 2.257812 -2.304688 2.59375 -1.890625 C 2.9375 -1.484375 3.390625 -1.28125 3.953125 -1.28125 C 4.523438 -1.28125 4.976562 -1.484375 5.3125 -1.890625 C 5.65625 -2.304688 5.828125 -2.90625 5.828125 -3.6875 Z M 5.828125 -3.6875 "/></g></g></g><g fill="#ed1c24" fill-opacity="1"><g transform="translate(210.465248, 251.456935)"><g><path d="M 6.796875 -7.359375 L 6.796875 0 L 5.453125 0 L 2.25 -4.640625 L 2.203125 -4.640625 L 2.203125 0 L 0.640625 0 L 0.640625 -7.359375 L 2 -7.359375 L 5.1875 -2.734375 L 5.25 -2.734375 L 5.25 -7.359375 Z M 6.796875 -7.359375 "/></g></g></g><g fill="#ed1c24" fill-opacity="1"><g transform="translate(220.299247, 251.456935)"><g/></g></g><g fill="#ed1c24" fill-opacity="1"><g transform="translate(225.038291, 251.456935)"><g><path d="M 3.25 0 L 0.640625 0 L 0.640625 -7.359375 L 3.265625 -7.359375 C 4.015625 -7.359375 4.65625 -7.210938 5.1875 -6.921875 C 5.71875 -6.628906 6.128906 -6.207031 6.421875 -5.65625 C 6.710938 -5.113281 6.859375 -4.457031 6.859375 -3.6875 C 6.859375 -2.914062 6.710938 -2.253906 6.421875 -1.703125 C 6.128906 -1.160156 5.710938 -0.738281 5.171875 -0.4375 C 4.640625 -0.144531 4 0 3.25 0 Z M 2.203125 -1.328125 L 3.1875 -1.328125 C 3.875 -1.328125 4.394531 -1.515625 4.75 -1.890625 C 5.113281 -2.265625 5.296875 -2.863281 5.296875 -3.6875 C 5.296875 -4.507812 5.113281 -5.101562 4.75 -5.46875 C 4.394531 -5.84375 3.875 -6.03125 3.1875 -6.03125 L 2.203125 -6.03125 Z M 2.203125 -1.328125 "/></g></g></g><g fill="#ed1c24" fill-opacity="1"><g transform="translate(234.793188, 251.456935)"><g><path d="M 0.640625 0 L 0.640625 -7.359375 L 5.609375 -7.359375 L 5.609375 -6.078125 L 2.203125 -6.078125 L 2.203125 -4.328125 L 5.34375 -4.328125 L 5.34375 -3.046875 L 2.203125 -3.046875 L 2.203125 -1.28125 L 5.609375 -1.28125 L 5.609375 0 Z M 0.640625 0 "/></g></g></g><g fill="#ed1c24" fill-opacity="1"><g transform="translate(243.386705, 251.456935)"><g><path d="M 1.96875 -7.359375 L 3.75 -1.765625 L 3.8125 -1.765625 L 5.609375 -7.359375 L 7.328125 -7.359375 L 4.796875 0 L 2.78125 0 L 0.234375 -7.359375 Z M 1.96875 -7.359375 "/></g></g></g><g fill="#ed1c24" fill-opacity="1"><g transform="translate(253.350148, 251.456935)"><g><path d="M 2.203125 -7.359375 L 2.203125 0 L 0.640625 0 L 0.640625 -7.359375 Z M 2.203125 -7.359375 "/></g></g></g><g fill="#ed1c24" fill-opacity="1"><g transform="translate(258.581791, 251.456935)"><g><path d="M 7.140625 -4.78125 L 5.5625 -4.78125 C 5.5 -5.1875 5.320312 -5.503906 5.03125 -5.734375 C 4.75 -5.972656 4.398438 -6.09375 3.984375 -6.09375 C 3.410156 -6.09375 2.953125 -5.878906 2.609375 -5.453125 C 2.265625 -5.035156 2.09375 -4.445312 2.09375 -3.6875 C 2.09375 -2.894531 2.265625 -2.296875 2.609375 -1.890625 C 2.953125 -1.484375 3.40625 -1.28125 3.96875 -1.28125 C 4.382812 -1.28125 4.734375 -1.382812 5.015625 -1.59375 C 5.304688 -1.8125 5.488281 -2.117188 5.5625 -2.515625 L 7.140625 -2.515625 C 7.078125 -2.054688 6.910156 -1.628906 6.640625 -1.234375 C 6.378906 -0.835938 6.019531 -0.515625 5.5625 -0.265625 C 5.113281 -0.0234375 4.570312 0.09375 3.9375 0.09375 C 3.28125 0.09375 2.691406 -0.0507812 2.171875 -0.34375 C 1.660156 -0.644531 1.253906 -1.078125 0.953125 -1.640625 C 0.660156 -2.203125 0.515625 -2.882812 0.515625 -3.6875 C 0.515625 -4.488281 0.664062 -5.171875 0.96875 -5.734375 C 1.269531 -6.296875 1.675781 -6.722656 2.1875 -7.015625 C 2.707031 -7.316406 3.289062 -7.46875 3.9375 -7.46875 C 4.507812 -7.46875 5.019531 -7.359375 5.46875 -7.140625 C 5.925781 -6.929688 6.300781 -6.628906 6.59375 -6.234375 C 6.882812 -5.835938 7.066406 -5.351562 7.140625 -4.78125 Z M 7.140625 -4.78125 "/></g></g></g><g fill="#ed1c24" fill-opacity="1"><g transform="translate(268.588379, 251.456935)"><g><path d="M 0.640625 0 L 0.640625 -7.359375 L 5.609375 -7.359375 L 5.609375 -6.078125 L 2.203125 -6.078125 L 2.203125 -4.328125 L 5.34375 -4.328125 L 5.34375 -3.046875 L 2.203125 -3.046875 L 2.203125 -1.28125 L 5.609375 -1.28125 L 5.609375 0 Z M 0.640625 0 "/></g></g></g><g fill="#ed1c24" fill-opacity="1"><g transform="translate(277.18365, 251.456935)"><g/></g></g></svg>